<?xml version="1.0" encoding="utf-8"?>
<!DOCTYPE svg PUBLIC "-//W3C//DTD SVG 1.0//EN" "http://www.w3.org/TR/2001/REC-SVG-20010904/DTD/svg10.dtd">
<svg version="1.0" xmlns="http://www.w3.org/2000/svg" width="512px" height="512px" viewBox="0 0 512 512" preserveAspectRatio="xMidYMid meet">
 <g fill="#ffffff">
  <path d="M173 347.7 c-3 -0.7 -7.2 -2.3 -9.2 -3.5 -8.4 -5.2 -10.1 -8.3 -37.7 -69.3 -34.8 -76.8 -32.4 -70.8 -32.5 -80.4 -0.1 -11.2 1.8 -17 7.4 -22.6 6.1 -6.1 11.6 -7.9 24 -7.9 12.9 0 18.9 1.8 24.7 7.6 5 5.1 7.6 10.3 23.8 47.9 5.9 13.8 11 25.3 11.4 25.7 0.3 0.4 6.9 -14 14.6 -31.9 7.7 -17.9 15.3 -34.4 16.9 -36.7 3.3 -4.8 9.7 -9.9 14.5 -11.5 4.7 -1.5 22.7 -1.3 27.4 0.3 5.5 2 10.3 6.1 13.4 11.3 2.1 3.6 2.7 6.2 3.1 12.2 l0.4 7.7 8.2 -8 c11.9 -11.9 26.6 -19.7 43.6 -23.3 13.1 -2.8 42.4 -2.5 54.4 0.5 26.8 6.7 37.6 18 36.4 38.1 -0.5 8.6 -2.9 14.8 -7.7 20.3 -5.1 5.8 -10.3 7.8 -20.3 7.8 -7.5 0 -9.8 -0.5 -17.9 -3.6 -7.6 -3 -10.7 -3.7 -16.5 -3.7 -18.2 -0.1 -28.4 12.9 -27.2 34.4 0.6 10.7 5.2 20 11.8 24.1 8.9 5.5 19.6 5.5 32.5 0.1 8.9 -3.8 22.2 -4.3 29.3 -1.3 6.5 2.8 12.5 9.4 14.7 16.1 2.2 6.6 1.7 21.8 -0.8 27 -5 10 -18.2 17.5 -39.2 22.1 -7.9 1.7 -38.9 1.7 -47 0 -20.5 -4.4 -37.1 -13.3 -48.6 -26.1 -15.5 -17.1 -22.4 -39.1 -21.7 -68.6 l0.3 -15 -2.3 5 c-1.3 2.7 -10.9 23.9 -21.4 47 -10.5 23.1 -20.4 43.9 -22 46.2 -3.5 5.2 -8.1 8.8 -13.8 10.8 -6 2.1 -20.2 2.8 -27 1.2z m201.9 -17.7 c10.2 -2.5 21.4 -8.2 24.4 -12.4 4.7 -6.6 1.2 -16.8 -6.9 -20.2 -3 -1.3 -3.8 -1.2 -10.6 1.5 -4 1.6 -10.4 3.5 -14.2 4.2 -8.6 1.5 -24.3 0.7 -31.1 -1.6 -11 -3.6 -18.7 -11.9 -22.5 -24.4 -2.9 -9.2 -2.9 -33.1 0 -42.4 3.9 -12.7 11.8 -20.7 23.9 -24.4 4.1 -1.3 9 -1.7 18.1 -1.7 11.5 0 13.2 0.3 21.5 3.3 5 1.7 9.9 3.4 11 3.7 4.8 1.2 12.5 -7.6 12.5 -14.3 0 -10.1 -16.3 -18.9 -39.6 -21.5 -20.1 -2.3 -42.7 3.9 -58.3 15.9 -11.7 9.1 -20.9 23.6 -25.2 39.8 -3 11.3 -3 29.8 0 41 2.7 10.2 8.7 22.5 14.4 29.6 17.4 21.7 51.3 31.5 82.6 23.9z m-182.2 0.1 c2.5 -1.2 5.2 -3.5 6.7 -5.8 3 -4.5 57 -122.6 58.7 -128.3 2.1 -7.1 -3.6 -14.6 -11.9 -15.7 -2.4 -0.3 -5.5 0 -7.2 0.7 -7 2.9 -9.6 7.7 -30.5 56.4 l-20 46.7 -3.5 -0.3 -3.4 -0.3 -19.7 -45.6 c-10.8 -25 -20.9 -47.5 -22.4 -49.8 -6.8 -10.2 -20.6 -10.8 -27.3 -1 -3.7 5.3 -3.4 6.5 10.5 36.9 1.4 3 11.1 24.4 21.5 47.5 22.1 48.7 23.8 52.3 26.9 55.2 6 5.6 14 6.8 21.6 3.4z"/>
 </g>
 <g fill="#00a5ff">
  <path d="M0.6 332.8 c-1 -3.8 -0.6 -147.5 0.4 -159.4 4.4 -49.6 41.8 -87 91.4 -91.4 6.1 -0.5 45 -1 86.4 -1 70.9 0 75.2 0.1 75.2 1.7 0 1 -21.3 23.1 -48 49.8 l-47.9 48 0.9 4 c1.2 5.1 1.3 9.5 0.1 9.5 -0.4 0 -2.5 -3.4 -4.4 -7.5 -6.8 -14.1 -15.1 -19.5 -29.8 -19.5 -14.6 0 -24.1 6.8 -27.4 19.6 -2.1 8.4 -1 13.1 7.5 32 3.8 8.6 7 15.8 7 16.1 0 0.2 -1.8 0.3 -4 0.2 l-4.1 -0.3 -50.2 50.2 c-27.6 27.6 -50.7 50.2 -51.3 50.2 -0.7 0 -1.4 -1 -1.8 -2.2z"/>
  <path d="M118.7 224.8 c-10.9 -23.3 -13 -29.6 -11.7 -35.5 1.9 -8.3 7.9 -12.3 18.3 -12.3 11.4 0 16 3.7 22.3 17.7 4.7 10.5 4.7 10.3 1.9 10.3 -1.8 0 -2.5 -0.5 -2.5 -2 0 -1.3 -0.7 -2 -1.9 -2 -1.1 0 -2.1 -0.9 -2.5 -2.2 -0.5 -2.1 -1.6 -1.3 -11.1 8.2 l-10.5 10.4 0.7 5.3 c0.7 6.1 -0.7 7 -3 2.1z"/>
  <path d="M236 164.5 c0 -2.2 0.4 -2.5 3.4 -2.5 6.2 0 9.6 1.1 9.6 3.1 0 1.7 -0.8 1.9 -6.5 1.9 -6.3 0 -6.5 -0.1 -6.5 -2.5z"/>
 </g>
 <g fill="#0089ff">
  <path d="M53.9 418.9 c-29.5 -15.6 -50.5 -46.8 -52.6 -78.2 l-0.6 -8.9 52.3 -52.3 c28.8 -28.8 53.2 -52.6 54.2 -52.8 1.9 -0.5 2.6 0.9 0.7 1.5 -1.5 0.5 -0.1 3.5 1.9 4.1 1.1 0.3 9.3 17.3 23.7 49.2 22.7 50.4 25.6 55.5 32.9 59.4 3.6 2 3.3 3.1 -0.9 3.1 -1.9 0 -3.5 -0.4 -3.5 -1 0 -0.5 -1.1 -1 -2.5 -1 -1.6 0 -2.5 -0.6 -2.5 -1.5 0 -0.9 -1 -2 -2.2 -2.4 -2.1 -0.8 -6.6 3.4 -45.8 42.5 -23.9 23.9 -44 43.4 -44.5 43.4 -0.6 0 -5.3 -2.3 -10.6 -5.1z"/>
  <path d="M173.5 333.4 c-4.7 -2.4 -7.5 -5.4 -10.5 -11.4 -5.6 -11.1 -45 -98.9 -45 -100.3 0 -2.7 -1.2 -4.7 -2.4 -4.1 -0.6 0.4 5.1 -5.6 12.8 -13.3 7.6 -7.7 14.6 -14 15.5 -13.9 2.3 0.2 3.7 2.6 2 3.7 -1.1 0.7 -0.9 0.9 0.6 1 1.1 0 1.4 0.3 0.8 0.6 -1.8 0.7 -1.6 2.1 0.3 2.5 1.1 0.2 7.6 14.1 19.1 40.8 9.6 22.3 17.8 40.8 18.1 41.2 0.4 0.4 9.7 -20.2 20.7 -45.8 20.4 -47.4 23.1 -52.6 29.6 -55.9 3.9 -2.1 14.5 -1.9 18.8 0.3 5.7 2.9 7.6 6.4 7.6 14 0 6.5 -0.4 7.6 -17.3 44.7 -9.5 20.9 -17.7 38.4 -18.1 38.8 -1.8 1.9 -4.1 -0.6 -4.1 -4.4 0 -3.7 0.2 -3.9 3.3 -4 1.7 0 2.6 -0.3 2 -0.6 -0.7 -0.2 -1.3 -1.2 -1.3 -2.1 0 -0.9 -12.9 11.2 -28.9 27.2 -28.7 28.7 -28.9 28.9 -27 30.9 1 1.2 1.9 2.5 1.9 3 0 1.7 2.9 3.7 5.4 3.7 2.1 0 2.6 0.5 2.6 2.5 0 3 -2 3.2 -6.5 0.9z"/>
  <path d="M191 331.5 c0 -3.5 0 -3.5 4.5 -3.5 3.3 0 4.5 0.4 4.5 1.5 0 1.5 -1.8 2.7 -6.4 4.5 -2.5 0.9 -2.6 0.8 -2.6 -2.5z"/>
  <path d="M218.3 287.3 c-0.8 -0.2 -1.3 -2.2 -1.3 -4.4 0 -3.9 0 -3.9 4 -3.9 2.2 0 4 0.2 4 0.5 0 1.3 -4.1 8.5 -4.8 8.4 -0.4 0 -1.3 -0.3 -1.9 -0.6z"/>
  <path d="M272.7 265.3 c-0.4 -0.3 -0.7 -4.4 -0.7 -9 0 -7.6 0.2 -8.3 2 -8.3 1.9 0 2 0.7 2 9 0 6.8 -0.3 9 -1.3 9 -0.8 0 -1.7 -0.3 -2 -0.7z"/>
  <path d="M247 255.5 c0 -1.4 3.2 -6.5 4 -6.5 0.6 0 1 1.6 1 3.5 0 3.1 -0.3 3.5 -2.5 3.5 -1.4 0 -2.5 -0.2 -2.5 -0.5z"/>
  <path d="M170.2 221.8 c-7.8 -18.3 -14.3 -33.9 -14.2 -34.6 0 -0.7 -0.7 -2.7 -1.6 -4.4 l-1.6 -3.1 49.3 -49.3 49.4 -49.4 76.7 0 c72.4 0 76.8 0.1 76.8 1.7 0 1 -17.7 19.5 -39.5 41.3 -39.1 39.1 -39.5 39.6 -35.5 39.2 2.2 -0.2 4 -0.8 4 -1.3 0 -1.1 7.1 -1.2 8.8 0 0.8 0.5 1.2 1.7 1 2.7 -0.2 1.4 -2 2 -8.9 3 -34.6 5 -60.2 27.3 -69.4 60.7 -1.6 5.6 -1.7 5.7 -5.2 5.7 -2.4 0 -3.4 -0.4 -3 -1.2 0.3 -0.7 3.6 -8 7.4 -16.3 6.7 -14.8 6.8 -15.1 6.8 -23.5 0 -7.5 -0.3 -9.1 -2.8 -13.3 -4.7 -7.9 -12.4 -12.4 -22.6 -13 -2.3 -0.1 -4.1 -0.5 -4.1 -0.9 0 -0.5 -0.7 -0.8 -1.5 -0.8 -0.8 0 -1.5 0.4 -1.5 0.8 0 0.5 -1.9 1.4 -4.2 2.1 -5.6 1.7 -11.9 6.5 -15.6 12.1 -2.3 3.3 -25.3 55 -32.9 73.8 -0.3 0.6 -0.8 1.2 -1.2 1.2 -0.3 0 -7 -15 -14.9 -33.2z"/>
  <path d="M252 244.5 c0 -1.5 4.2 -8.5 5 -8.5 1.1 0 1.3 4.9 0.4 7.4 -0.6 1.4 -5.4 2.4 -5.4 1.1z"/>
  <path d="M278 222.5 c0 -1.5 6.2 -12.5 7 -12.5 0.6 0 1 1.6 1 3.5 0 2.4 -0.5 3.5 -1.5 3.5 -1 0 -1.5 1 -1.5 3 0 2.5 -0.4 3 -2.5 3 -1.4 0 -2.5 -0.2 -2.5 -0.5z"/>
  <path d="M286.9 206.2 c0.5 -0.9 1.9 -2.6 3 -3.6 2.1 -1.9 2.1 -1.9 2.1 1.7 0 3.4 -0.2 3.7 -3 3.7 -2.6 0 -2.9 -0.3 -2.1 -1.8z"/>
  <path d="M297.5 195 c2.1 -2.3 10.4 -8 11.7 -8 0.4 0 0.8 1.1 0.8 2.5 0 1.6 -0.6 2.5 -1.5 2.5 -0.8 0 -1.5 0.5 -1.5 1 0 0.6 -0.6 1 -1.4 1 -0.8 0 -1.6 0.7 -2 1.5 -0.3 1 -1.9 1.5 -4.2 1.5 -3.7 0 -3.7 0 -1.9 -2z"/>
  <path d="M369.5 167.3 c-6.2 -0.7 -7.5 -1.3 -7.5 -3.3 0 -2.2 0.7 -2.3 8.8 -1.4 4.6 0.6 5.2 0.9 5.2 3 0 2.5 -0.2 2.5 -6.5 1.7z"/>
 </g>
 <g fill="#0072ff">
  <path d="M90.5 429.9 c-8.8 -0.8 -26.1 -5.1 -28 -7 -1.5 -1.5 89.4 -92 92 -91.7 1.1 0.2 1.9 1 1.8 1.8 -0.2 1 1 2.1 3 2.8 2.6 1 2.9 1.4 1.7 2.2 -1.3 0.8 -1.3 1 0.1 1 0.9 0 3.6 1.1 6 2.4 11.1 6.2 28.1 5.2 37.6 -2 5.4 -4.1 8.4 -9.6 23.3 -42.4 7.8 -17.3 15.8 -34.9 17.7 -39 1.9 -4.1 5 -10.9 6.9 -15 1.9 -4.1 4.6 -9.6 6 -12.2 1.4 -2.7 2.7 -5.8 2.9 -7 0.7 -3.2 2.7 -4.9 4.5 -3.8 1.3 0.8 1.2 1 -0.2 1 -2.1 0 -2.4 1.6 -0.5 2.3 0.7 0.3 0.5 0.6 -0.5 0.6 -1 0.1 -1.8 0.4 -1.8 0.7 0 0.4 0.8 1.3 1.8 2 1.6 1.2 1.5 1.3 -0.5 1.4 -2.5 0 -3.1 1.5 -1 2.3 1.1 0.4 1.1 1.8 0.1 7.9 -1.8 10 -1.7 25.7 0.1 36.3 1.8 10.3 6.8 24.1 11.6 32 4 6.8 13.3 17.2 18.3 20.6 2 1.3 3.6 2.7 3.6 3.2 0 0.4 -2 0.7 -4.5 0.7 -3.8 0 -4.5 -0.3 -4.5 -2 0 -6 -4.5 -2 -56.5 50 l-52 52 -40 -0.1 c-22 -0.1 -44 -0.5 -49 -1z"/>
  <path d="M180.3 335.3 c-1.8 -0.2 -3.3 -0.8 -3.3 -1.3 0 -0.4 -0.8 -0.6 -1.7 -0.4 -2.2 0.5 -5.3 -2.1 -7.2 -5.9 -0.9 -1.6 -1.7 -2.3 -2.1 -1.6 -0.4 0.6 -1 -0.7 -1.3 -2.8 l-0.7 -3.8 35.8 -35.7 c19.6 -19.7 36.2 -35.8 36.9 -35.8 0.6 0 1.4 0.4 1.7 0.9 0.4 0.5 -0.2 0.7 -1.2 0.4 -2.3 -0.6 -5.1 4.6 -3.1 5.8 0.7 0.4 0.9 1.7 0.5 3.2 -0.4 1.8 -1.1 2.4 -2.5 2 -2 -0.5 -4.1 2.9 -2.2 3.5 2.8 0.9 -0.2 8.2 -3 7.5 -2 -0.6 -2.7 1.3 -0.7 1.9 0.8 0.3 0.6 1.7 -0.6 5 -1.4 3.6 -2.2 4.5 -3.7 4.1 -1 -0.3 -1.9 0 -1.9 0.6 0 0.6 0.5 1.1 1 1.1 0.6 0 1 0.5 1 1 0 2.1 -17.4 39.2 -20.2 43.1 -2.4 3.3 -3.2 3.8 -5.3 3.3 -2 -0.5 -2.4 -0.3 -1.9 0.9 0.4 1.1 -0.3 1.7 -2.5 2.1 -5.6 1.1 -8.6 1.3 -11.8 0.9z"/>
  <path d="M295.8 316 c-8 -6.2 -17.1 -22.2 -20.9 -36.5 -3.1 -11.6 -3.1 -35.5 0 -47 2.6 -9.7 8.8 -22.6 13.6 -28 1.9 -2.2 3.5 -4.3 3.5 -4.7 0 -0.4 2.6 -2.6 5.8 -4.9 3.1 -2.4 5.9 -4.5 6.2 -4.8 0.9 -1 6.4 -4.1 10.7 -6.1 20.3 -9.2 46.1 -10.5 68.4 -3.4 19.1 6 25.8 16.9 18.9 30.4 -4.5 8.8 -11.3 9.8 -27.5 3.9 -20.7 -7.4 -42.9 -2.6 -52.2 11.4 -5.3 7.9 -7.3 16.1 -7.3 29.7 0 18.2 4.7 30.3 14.5 37.2 2.5 1.8 4.5 3.5 4.5 4 0 0.4 -1.6 0.8 -3.5 0.8 -2.4 0 -3.5 -0.5 -3.5 -1.5 0 -0.8 -0.9 -1.5 -2 -1.5 -1.2 0 -3.1 -0.7 -4.3 -1.5 -2.2 -1.4 -2.6 -1.1 -11.9 8.3 -7.8 7.8 -9.7 10.3 -10 13.1 l-0.3 3.3 -2.7 -2.2z"/>
  <path d="M343.3 289.3 c-0.7 -0.2 -1.3 -1.3 -1.3 -2.4 0 -1.5 0.7 -1.9 3.5 -1.9 3.1 0 3.5 0.3 3.5 2.5 0 1.9 -0.5 2.5 -2.2 2.4 -1.3 0 -2.9 -0.3 -3.5 -0.6z"/>
  <path d="M360 287.5 c0 -2.3 0.4 -2.5 4.5 -2.5 3.7 0 4.5 0.3 4.5 1.9 0 1.9 -2.5 3.1 -6.7 3.1 -1.8 0 -2.3 -0.6 -2.3 -2.5z"/>
  <path d="M333.7 283.7 c-1.6 -1.5 -4 -5.3 -5.5 -8.5 -2.2 -4.7 -2.7 -7.5 -3 -16.1 -0.8 -19 3.6 -29.4 14.5 -34.7 5.2 -2.6 6.8 -2.9 15.8 -2.8 9.1 0 10.8 0.4 19.8 3.9 10 3.9 12.6 6.5 6.4 6.5 -2.9 0 -5.6 2.4 -25.5 22.3 -12.2 12.2 -22.2 22.6 -22.2 23.1 0 0.5 0.7 1.4 1.6 2 1 0.8 1.4 2.3 1.2 4.1 l-0.3 3 -2.8 -2.8z"/>
  <path d="M413 191.6 c-0.6 -1.9 -3 -5.6 -5.3 -8.2 -4.9 -5.6 -16.2 -11.4 -27.5 -14.1 -4 -0.9 -7.2 -2 -7.2 -2.3 0 -0.4 -1.4 -0.4 -3.1 -0.2 -2 0.3 -3.4 0 -4 -0.9 -0.5 -0.8 -0.9 -0.9 -0.9 -0.4 0 1.5 -23.2 1.3 -24.8 -0.2 -1.8 -1.7 -3.2 -1.6 -3.2 0.1 0 0.8 -0.7 1.6 -1.5 2 -0.8 0.3 -1.5 0.1 -1.5 -0.4 0 -0.6 -0.9 -1 -2 -1 -1.1 0 -2 0.4 -2 0.9 0 0.4 -1.1 0.6 -2.4 0.4 -1.7 -0.4 -2.5 0 -2.9 1.4 -0.4 1.6 -0.5 1.6 -0.6 0.1 -0.1 -2.2 -0.7 -2.2 -6.2 -0.3 -3.9 1.4 0.2 -3.1 40.3 -43.1 l44.6 -44.7 13.9 1.1 c16.5 1.3 28 4.4 40.4 10.8 10.9 5.6 19.6 12.1 27.5 20.6 l6.1 6.6 -37.6 37.6 c-20.6 20.7 -37.9 37.6 -38.3 37.6 -0.3 0 -1.2 -1.5 -1.8 -3.4z"/>
 </g>
 <g fill="#0060ff">
  <path d="M176 429.7 c0 -0.6 24.2 -25.4 53.8 -55 46.8 -46.8 54 -53.6 55.1 -52.3 0.8 0.9 2.1 1.6 3 1.6 2.4 0.1 5.5 2.7 3.9 3.3 -0.8 0.3 -0.5 0.6 0.7 0.6 1.1 0.1 3.4 1 5 2.2 5.2 3.5 15.8 8.5 22.5 10.7 11.3 3.6 18.1 4.6 32.5 4.6 14.8 0.1 23.3 -1.1 34.8 -5 l6.7 -2.3 0 2.4 c0 2.1 -0.9 2.7 -6.9 4.5 -3.7 1.1 -7.2 2 -7.7 2 -0.5 0 -19.8 18.9 -42.9 42 l-42 42 -59.2 0 c-46.9 0 -59.3 -0.3 -59.3 -1.3z"/>
  <path d="M398 337.2 c0 -0.5 1.8 -2.1 4.1 -3.6 l4 -2.7 -0.3 3.3 c-0.3 3 -0.6 3.3 -4 3.6 -2.1 0.2 -3.8 -0.1 -3.8 -0.6z"/>
  <path d="M336.5 334.6 c-18.4 -3.2 -32 -9.9 -43 -21 -1.7 -1.7 -2.6 -2.8 -2.1 -2.3 0.6 0.4 6.7 -4.9 14.2 -12.4 9.3 -9.3 13.7 -13 15 -12.7 1.1 0.2 1.8 1.1 1.6 2 -0.1 1 1.2 2.2 3.5 3.3 2.1 1 4 2.1 4.3 2.5 1.4 1.9 11.2 5.2 18 6.2 9.8 1.5 20 0.1 30.7 -4.2 4.1 -1.6 8.8 -3 10.4 -3 13 0 20.8 16.9 12.9 28 -2.7 3.8 -14.2 9.6 -24.1 12 -10.9 2.7 -30.4 3.4 -41.4 1.6z"/>
  <path d="M408 329.4 c0 -0.3 1.1 -2 2.4 -3.7 1.3 -1.8 2.9 -4.9 3.6 -6.9 1.4 -4.6 4 -5.1 4 -0.9 0 3.9 -0.9 6.1 -2.6 6.1 -0.9 0 -1.4 1.1 -1.4 3 0 2.7 -0.3 3 -3 3 -1.6 0 -3 -0.3 -3 -0.6z"/>
  <path d="M415 309.2 c0 -9.8 -7 -20.2 -16.2 -24.2 -6.6 -2.8 -14.5 -2.3 -23.7 1.5 -4.2 1.7 -7.3 2.4 -8.9 2 -1.6 -0.4 -2.8 -0.1 -3.3 0.7 -1.2 1.9 -15.7 1.8 -16.8 -0.1 -0.5 -0.8 -1 -0.9 -1.2 -0.3 -0.6 1.6 -8.1 -2 -11.2 -5.3 -1.4 -1.5 -2.8 -4.2 -3.1 -5.8 -0.6 -3 0.5 -4.2 23.3 -27.2 13.2 -13.2 24.5 -23.9 25.1 -23.7 0.5 0.2 0.8 0.8 0.5 1.3 -0.4 0.5 3.5 0.8 8.9 0.6 8.7 -0.2 9.8 -0.4 13.8 -3.2 9.1 -6.4 14.2 -18.6 12.1 -28.8 l-1.1 -5.2 36.6 -36.7 c20.2 -20.3 37.2 -36.8 37.9 -36.8 1.9 0 7.7 8.1 12.7 17.8 8.6 16.8 11.6 32.8 11.6 63.2 l0 14.5 -46.5 46.5 c-42.3 42.3 -46.5 46.8 -46.5 49.7 0 2.6 -0.4 3.3 -2 3.3 -1.7 0 -2 -0.7 -2 -3.8z"/>
  <path d="M388 217.7 c0 -1.6 13.1 -14.7 14.8 -14.7 0.6 0 1.2 -1 1.2 -2.2 0 -1.2 0.3 -1.9 0.6 -1.5 0.4 0.3 0.3 2.2 0 4.2 -0.5 2.5 -1.2 3.5 -2.5 3.5 -2.1 0 -3.9 3.2 -2.2 3.8 1.7 0.6 1.3 2.7 -0.9 4.7 -1.1 1 -2 1.3 -2 0.7 0 -0.7 -1 -1.2 -2.1 -1.2 -1.6 0 -2 0.5 -1.6 2 0.4 1.7 0 2 -2.4 2 -1.7 0 -2.9 -0.5 -2.9 -1.3z"/>
 </g>
 <g fill="#004bff">
  <path d="M291 429.7 c0 -1.6 85.7 -87.3 86.6 -86.4 0.4 0.3 2.2 0 4 -0.8 1.9 -0.8 3.4 -1.1 3.4 -0.8 0 0.3 0.7 0 1.5 -0.7 0.8 -0.7 1.5 -1 1.5 -0.7 0 1.4 14.6 -6.6 18.4 -10 3.7 -3.5 8.5 -10.6 8.4 -12.6 0 -0.4 0.3 -3.8 0.7 -7.5 l0.6 -6.7 46.7 -46.7 c25.7 -25.8 47.3 -46.8 47.9 -46.8 1.6 0 1.8 111.3 0.3 128.6 -4.4 49.5 -41.9 87 -91.4 91.4 -17.3 1.5 -128.6 1.3 -128.6 -0.3z"/>
 </g>
</svg>